<?xml version="1.0" standalone="no"?><svg xmlns:xlink="http://www.w3.org/1999/xlink" xmlns="http://www.w3.org/2000/svg" viewBox="0 0 1000 666.6666666666666" preserveAspectRatio="xMaxYMax slice"><g transform="scale(1.3175230566534915)"><rect x="0" y="0" width="759" height="506" fill="#7896ba"/><path d="M 189.75 63.25 A 63.25 63.25 0 0 1  253 0 L 189.75 63.25 A 63.25 63.25 0 0 0 253 0" fill="#64b4cd"/><path d="M 253 0 A 63.25 63.25 0 0 1  316.25 63.25 L 253 0 A 63.25 63.25 0 0 0 316.25 63.25" fill="#4cd9e4"/><path d="M 379.5 0 A 63.25 63.25 0 0 1  442.75 63.25 L 379.5 0 A 63.25 63.25 0 0 0 442.75 63.25" fill="#4d6fcb"/><path d="M 695.75 63.25 A 63.25 63.25 0 0 1  759 0 L 695.75 63.25 A 63.25 63.25 0 0 0 759 0" fill="#3df0f3"/><rect x="189.75" y="63.25" width="63.25" height="63.25" fill="#7896ba"/><path d="M 221.38 94.88 A 31.63 31.63 0 0 1  253.01 126.50999999999999 L 221.38 94.88 A 31.63 31.63 0 0 0 253.01 126.50999999999999" fill="#1c42e0"/><path d="M 316.25 63.25 A 63.25 63.25 0 0 1  379.5 126.5 L 316.25 63.25 A 63.25 63.25 0 0 0 379.5 126.5" fill="#2248dd"/><path d="M 632.5 63.25 A 63.25 63.25 0 0 1  695.75 126.5 L 632.5 63.25 A 63.25 63.25 0 0 0 695.75 126.5" fill="#3df0f3"/><rect x="695.75" y="63.25" width="63.25" height="63.25" fill="#7896ba"/><path d="M 727.38 63.25 A 31.63 31.63 0 0 1  759.01 94.88 L 727.38 63.25 A 31.63 31.63 0 0 0 759.01 94.88" fill="#60bad1"/><rect x="63.25" y="126.5" width="63.25" height="63.25" fill="#7896ba"/><path d="M 94.88 158.13 A 31.63 31.63 0 0 1  126.50999999999999 189.76 L 94.88 158.13 A 31.63 31.63 0 0 0 126.50999999999999 189.76" fill="#3cf1f3"/><path d="M 379.5 126.5 A 63.25 63.25 0 0 1  442.75 189.75 L 379.5 126.5 A 63.25 63.25 0 0 0 442.75 189.75" fill="#3df0f3"/><rect x="569.25" y="126.5" width="63.25" height="63.25" fill="#7896ba"/><path d="M 695.75 126.5 A 63.25 63.25 0 0 1  759 189.75 L 695.75 126.5 A 63.25 63.25 0 0 0 759 189.75" fill="#3a5ed3"/><path d="M 63.25 189.75 A 63.25 63.25 0 0 1  126.5 253 L 63.25 189.75 A 63.25 63.25 0 0 0 126.5 253" fill="#7593bb"/><rect x="126.5" y="189.75" width="63.25" height="63.25" fill="#7896ba"/><path d="M 632.5 189.75 A 63.25 63.25 0 0 1  695.75 253 L 632.5 189.75 A 63.25 63.25 0 0 0 695.75 253" fill="#708ebd"/><path d="M 695.75 189.75 A 63.25 63.25 0 0 1  759 253 L 695.75 189.75 A 63.25 63.25 0 0 0 759 253" fill="#6f8dbe"/><rect x="63.25" y="253" width="63.25" height="63.25" fill="#7896ba"/><rect x="189.75" y="253" width="63.25" height="63.25" fill="#7896ba"/><path d="M 189.75 253 A 31.63 31.63 0 0 1  221.38 284.63 L 189.75 253 A 31.63 31.63 0 0 0 221.38 284.63" fill="#3e61d2"/><path d="M 189.75 316.26 A 31.63 31.63 0 0 1  221.38 284.63 L 189.75 316.26 A 31.63 31.63 0 0 0 221.38 284.63" fill="#3559d5"/><path d="M 221.38 284.63 A 31.63 31.63 0 0 1  253.01 316.26 L 221.38 284.63 A 31.63 31.63 0 0 0 253.01 316.26" fill="#6fa4c3"/><rect x="253" y="253" width="63.25" height="63.25" fill="#7896ba"/><rect x="316.25" y="253" width="63.25" height="63.25" fill="#7896ba"/><rect x="379.5" y="253" width="63.25" height="63.25" fill="#7896ba"/><path d="M 411.13 284.63 A 31.63 31.63 0 0 1  442.76 253 L 411.13 284.63 A 31.63 31.63 0 0 0 442.76 253" fill="#56cadb"/><path d="M 506 253 A 63.25 63.25 0 0 1  569.25 316.25 L 506 253 A 63.25 63.25 0 0 0 569.25 316.25" fill="#5374c9"/><path d="M 632.5 253 A 63.25 63.25 0 0 1  695.75 316.25 L 632.5 253 A 63.25 63.25 0 0 0 695.75 316.25" fill="#4164d0"/><path d="M 126.5 379.5 A 63.25 63.25 0 0 1  189.75 316.25 L 126.5 379.5 A 63.25 63.25 0 0 0 189.75 316.25" fill="#4dd7e3"/><path d="M 189.75 379.5 A 63.25 63.25 0 0 1  253 316.25 L 189.75 379.5 A 63.25 63.25 0 0 0 253 316.25" fill="#33fffc"/><rect x="253" y="316.25" width="63.25" height="63.25" fill="#7896ba"/><path d="M 253 347.88 A 31.63 31.63 0 0 1  284.63 316.25 L 253 347.88 A 31.63 31.63 0 0 0 284.63 316.25" fill="#7795ba"/><path d="M 316.25 316.25 A 63.25 63.25 0 0 1  379.5 379.5 L 316.25 316.25 A 63.25 63.25 0 0 0 379.5 379.5" fill="#7795ba"/><path d="M 442.75 379.5 A 63.25 63.25 0 0 1  506 316.25 L 442.75 379.5 A 63.25 63.25 0 0 0 506 316.25" fill="#59c5d7"/><rect x="506" y="316.25" width="63.25" height="63.25" fill="#7896ba"/><path d="M 537.63 347.88 A 31.63 31.63 0 0 1  569.26 379.51 L 537.63 347.88 A 31.63 31.63 0 0 0 569.26 379.51" fill="#1b42e0"/><path d="M 569.25 316.25 A 63.25 63.25 0 0 1  632.5 379.5 L 569.25 316.25 A 63.25 63.25 0 0 0 632.5 379.5" fill="#5274c9"/><path d="M 632.5 316.25 A 63.25 63.25 0 0 1  695.75 379.5 L 632.5 316.25 A 63.25 63.25 0 0 0 695.75 379.5" fill="#3f62d1"/><rect x="569.25" y="379.5" width="63.25" height="63.25" fill="#7896ba"/><path d="M 569.25 442.76 A 31.63 31.63 0 0 1  600.88 411.13 L 569.25 442.76 A 31.63 31.63 0 0 0 600.88 411.13" fill="#597ac6"/><path d="M 600.88 442.76 A 31.63 31.63 0 0 1  632.51 411.13 L 600.88 442.76 A 31.63 31.63 0 0 0 632.51 411.13" fill="#6686c1"/><path d="M 632.5 442.75 A 63.25 63.25 0 0 1  695.75 379.5 L 632.5 442.75 A 63.25 63.25 0 0 0 695.75 379.5" fill="#3cf1f3"/><path d="M 695.75 379.5 A 63.25 63.25 0 0 1  759 442.75 L 695.75 379.5 A 63.25 63.25 0 0 0 759 442.75" fill="#2e53d8"/><path d="M 253 506 A 63.25 63.25 0 0 1  316.25 442.75 L 253 506 A 63.25 63.25 0 0 0 316.25 442.75" fill="#40ecf0"/><path d="M 379.5 442.75 A 63.25 63.25 0 0 1  442.75 506 L 379.5 442.75 A 63.25 63.25 0 0 0 442.75 506" fill="#3a5ed3"/></g></svg>